<?xml version="1.0" encoding="utf-8"?>
<!-- Generator: Adobe Illustrator 16.0.0, SVG Export Plug-In . SVG Version: 6.00 Build 0)  -->
<!DOCTYPE svg PUBLIC "-//W3C//DTD SVG 1.1//EN" "http://www.w3.org/Graphics/SVG/1.1/DTD/svg11.dtd">
<svg version="1.1" id="Layer_1" xmlns="http://www.w3.org/2000/svg" xmlns:xlink="http://www.w3.org/1999/xlink" x="0px" y="0px"
	 width="359.375px" height="267.637px" viewBox="0 0 359.375 267.637" enable-background="new 0 0 359.375 267.637"
	 xml:space="preserve">
<g>
	<path fill="#B06428" d="M11.986,251.55v-20.962c0-5.789,4.693-10.482,10.481-10.482h314.436c5.792,0,10.481,4.693,10.481,10.482
		v20.962c0,5.789-4.689,10.481-10.481,10.481H22.467C16.679,262.031,11.986,257.339,11.986,251.55z"/>
	<path fill="#A35525" d="M336.903,241.068v5.241c0,2.893-2.347,5.24-5.24,5.24H32.948c-5.789,0-10.481,4.692-10.481,10.481l0,0
		h151.979h94.33h68.128c5.792,0,10.481-4.692,10.481-10.481v-20.962l0,0C341.599,230.588,336.903,235.28,336.903,241.068z"/>
	<path fill="#3EB44A" d="M116.798,220.105H53.911V57.646c0-2.894,2.346-5.24,5.241-5.24h52.406c2.894,0,5.24,2.346,5.24,5.24
		V220.105z"/>
	<path fill="#4D9BD5" d="M305.46,220.105h-62.888V57.646c0-2.894,2.348-5.24,5.24-5.24h52.407c2.893,0,5.24,2.346,5.24,5.24V220.105
		z"/>
	<path fill="#ED2E3A" d="M179.686,220.105h-62.888V5.24c0-2.894,2.346-5.24,5.241-5.24h52.406c2.894,0,5.24,2.346,5.24,5.24V220.105
		z"/>
	<path fill="#FFD069" d="M242.572,220.105h-62.886V26.203c0-2.895,2.347-5.241,5.24-5.241h52.406c2.893,0,5.24,2.346,5.24,5.241
		V220.105z"/>
	<path fill="#CC202D" d="M127.28,209.625h36.685c2.894,0,5.24-2.348,5.24-5.24V15.722c0-5.789,4.693-10.481,10.481-10.481l0,0
		v41.925v94.331v78.609h-62.888l0,0C116.798,214.317,121.491,209.625,127.28,209.625z"/>
	<path fill="#F4B445" d="M190.166,209.625h36.685c2.894,0,5.24-2.348,5.24-5.24V36.684c0-5.789,4.695-10.481,10.481-10.481l0,0
		v41.925v73.369v78.609h-62.886l0,0C179.686,214.317,184.379,209.625,190.166,209.625z"/>
	<path fill="#3689C9" d="M253.054,209.625h36.685c2.894,0,5.24-2.348,5.24-5.24V68.128c0-5.789,4.695-10.481,10.481-10.481l0,0
		v41.925v41.925v78.609h-62.888l0,0C242.572,214.317,247.267,209.625,253.054,209.625z"/>
	<path fill="#139347" d="M64.392,209.625h36.685c2.895,0,5.241-2.348,5.241-5.24V68.128c0-5.789,4.692-10.481,10.481-10.481l0,0
		v41.925v41.925v78.609H53.911l0,0C53.911,214.317,58.604,209.625,64.392,209.625z"/>
	<rect x="116.798" y="31.444" fill="#B62226" width="62.888" height="5.24"/>
	<rect x="116.798" y="41.925" fill="#B62226" width="62.888" height="5.241"/>
	<rect x="53.911" y="73.369" fill="#088141" width="62.887" height="5.241"/>
	<rect x="53.911" y="83.85" fill="#088141" width="62.887" height="5.24"/>
	<rect x="53.911" y="183.422" fill="#088141" width="62.887" height="5.241"/>
	<rect x="53.911" y="193.903" fill="#088141" width="62.887" height="5.24"/>
	<rect x="242.572" y="73.369" fill="#0362A5" width="62.888" height="5.241"/>
	<rect x="242.572" y="83.85" fill="#0362A5" width="62.888" height="5.24"/>
	<rect x="242.572" y="183.422" fill="#0362A5" width="62.888" height="5.241"/>
	<rect x="242.572" y="193.903" fill="#0362A5" width="62.888" height="5.24"/>
	<rect x="179.686" y="41.925" fill="#F09922" width="62.886" height="5.241"/>
	<rect x="179.686" y="52.406" fill="#F09922" width="62.886" height="5.24"/>
	<rect x="179.686" y="183.422" fill="#F09922" width="62.886" height="5.241"/>
	<rect x="179.686" y="193.903" fill="#F09922" width="62.886" height="5.24"/>
	<rect x="116.798" y="178.181" fill="#B62226" width="62.888" height="5.241"/>
	<rect x="116.798" y="188.663" fill="#B62226" width="62.888" height="5.24"/>
	<path fill="#E2E4E5" d="M152.828,151.978h-9.171c-0.361,0-0.655-0.293-0.655-0.655v-82.54c0-0.361,0.293-0.655,0.655-0.655h9.171
		c0.362,0,0.655,0.294,0.655,0.655v82.54C153.483,151.685,153.19,151.978,152.828,151.978z"/>
	<path fill="#F09922" d="M215.714,146.738h-9.171c-0.358,0-0.655-0.293-0.655-0.655V89.746c0-0.361,0.297-0.655,0.655-0.655h9.171
		c0.364,0,0.656,0.294,0.656,0.655v56.337C216.37,146.444,216.078,146.738,215.714,146.738z"/>
	<path fill="#E2E4E5" d="M89.94,162.459h-9.171c-0.361,0-0.655-0.293-0.655-0.655V126.43c0-0.361,0.293-0.655,0.655-0.655h9.171
		c0.362,0,0.655,0.293,0.655,0.655v35.375C90.596,162.166,90.302,162.459,89.94,162.459z"/>
	<path fill="#0362A5" d="M278.602,167.7h-9.171c-0.359,0-0.655-0.293-0.655-0.655v-35.374c0-0.362,0.296-0.655,0.655-0.655h9.171
		c0.364,0,0.655,0.293,0.655,0.655v35.374C279.257,167.407,278.966,167.7,278.602,167.7z"/>
	<path fill="#E2E4E5" d="M89.94,120.534h-9.171c-0.361,0-0.655-0.293-0.655-0.655v-14.412c0-0.362,0.293-0.655,0.655-0.655h9.171
		c0.362,0,0.655,0.293,0.655,0.655v14.412C90.596,120.241,90.302,120.534,89.94,120.534z"/>
	<circle fill="#0362A5" cx="274.016" cy="120.534" r="5.24"/>
</g>
<path fill="#E4E9F6" d="M285.021,58.208H76.818c-40.937,0-76.058,32.029-76.805,72.96c-0.764,41.708,32.811,75.749,74.339,75.749
	c20.162,0,38.395-8.07,51.781-21.107c2.332-2.266,5.369-3.671,8.623-3.671h89.88c3.244,0,6.273,1.4,8.594,3.662
	c15.145,14.752,36.489,23.149,59.817,20.693c34.25-3.603,62.109-31.275,65.867-65.521C363.83,96.145,328.853,58.208,285.021,58.208z
	"/>
<path fill="#D8DEEC" d="M74.352,92.288c22.243,0,40.274,18.032,40.274,40.276c0,22.24-18.032,40.277-40.274,40.277
	c-22.242,0-40.275-18.038-40.275-40.277C34.077,110.319,52.109,92.288,74.352,92.288z"/>
<path fill="#717588" d="M98.749,122.108H88.292c-1.923,0-3.486-1.562-3.486-3.487v-10.457c0-1.924-1.561-3.486-3.484-3.486H67.381
	c-1.924,0-3.487,1.561-3.487,3.486v10.457c0,1.925-1.56,3.487-3.484,3.487H49.955c-1.924,0-3.485,1.559-3.485,3.483v13.94
	c0,1.926,1.56,3.487,3.485,3.487h10.458c1.923,0,3.484,1.558,3.484,3.485v10.463c0,1.931,1.562,3.487,3.486,3.487h13.941
	c1.925,0,3.486-1.556,3.486-3.487v-10.463c0-1.922,1.562-3.485,3.486-3.485h10.456c1.923,0,3.486-1.561,3.486-3.487v-13.94
	C102.234,123.667,100.672,122.108,98.749,122.108z"/>
<circle fill="#5C5E6F" cx="74.352" cy="132.562" r="6.196"/>
<g>
	<path fill="#717588" d="M148.71,157.351c-2.277,0-4.461-1.255-5.55-3.43c-1.531-3.062-0.29-6.781,2.771-8.312l12.394-6.196
		c3.06-1.528,6.781-0.291,8.312,2.771c1.531,3.062,0.289,6.786-2.771,8.316l-12.393,6.196
		C150.585,157.144,149.64,157.351,148.71,157.351z"/>
	<path fill="#717588" d="M185.886,157.351c-2.276,0-4.46-1.255-5.548-3.43c-1.532-3.062-0.292-6.781,2.771-8.312l12.39-6.196
		c3.057-1.528,6.778-0.291,8.315,2.771c1.533,3.062,0.292,6.786-2.77,8.316l-12.396,6.196
		C187.762,157.144,186.817,157.351,185.886,157.351z"/>
</g>
<g>
	<path fill="#D8DEEC" d="M201.37,95.387h-55.764c-5.133,0-9.294-4.162-9.294-9.294l0,0c0-5.132,4.163-9.294,9.294-9.294h55.764
		c5.132,0,9.299,4.162,9.299,9.294l0,0C210.669,91.225,206.502,95.387,201.37,95.387z"/>
	<path fill="#D8DEEC" d="M250.947,146.503c-3.634,0-7.238-1.59-9.676-4.652c-4.285-5.347-3.421-13.14,1.93-17.415l30.987-24.784
		c5.332-4.281,13.139-3.414,17.41,1.932c4.271,5.348,3.407,13.143-1.942,17.419l-30.976,24.784
		C256.397,145.614,253.659,146.503,250.947,146.503z"/>
	<path fill="#D8DEEC" d="M288.128,168.191c-3.64,0-7.238-1.587-9.689-4.649c-4.268-5.343-3.407-13.145,1.941-17.419l30.98-24.782
		c5.327-4.286,13.143-3.409,17.41,1.931c4.285,5.348,3.416,13.144-1.929,17.416l-30.989,24.792
		C293.573,167.304,290.843,168.191,288.128,168.191z"/>
</g>
<ellipse fill="#51C2BA" cx="250.938" cy="134.112" rx="12.396" ry="12.391"/>
<path fill="#8CB6E1" d="M281.923,96.937c6.837,0,12.392,5.547,12.392,12.392c0,6.844-5.555,12.392-12.392,12.392
	c-6.847,0-12.392-5.548-12.392-12.392C269.531,102.483,275.076,96.937,281.923,96.937z"/>
<path fill="#F16465" d="M319.099,118.622c6.842,0,12.392,5.549,12.392,12.392c0,6.839-5.55,12.394-12.392,12.394
	c-6.847,0-12.397-5.555-12.397-12.394C306.701,124.17,312.252,118.622,319.099,118.622z"/>
<path fill="#FFCE47" d="M288.114,143.408c6.847,0,12.396,5.545,12.396,12.39c0,6.844-5.549,12.394-12.396,12.394
	c-6.837,0-12.388-5.55-12.388-12.394C275.727,148.953,281.277,143.408,288.114,143.408z"/>
<path fill="#B6854F" d="M298.998,255.419l-22.584-22.586c0.18-0.724,0.18-1.535,0.18-2.35c0-6.956-5.691-12.647-12.646-12.647
	c-6.958,0-12.65,5.691-12.65,12.647c0,6.957,5.692,12.648,12.65,12.648c0.813,0,1.625-0.091,2.348-0.18l22.495,22.584
	c2.8,2.801,7.317,2.801,10.117,0C301.798,262.736,301.798,258.22,298.998,255.419z M298.998,255.419l-22.584-22.586
	c0.18-0.724,0.18-1.535,0.18-2.35c0-6.956-5.691-12.647-12.646-12.647c-6.958,0-12.65,5.691-12.65,12.647
	c0,6.957,5.692,12.648,12.65,12.648c0.813,0,1.625-0.091,2.348-0.18l22.495,22.584c2.8,2.801,7.317,2.801,10.117,0
	C301.798,262.736,301.798,258.22,298.998,255.419z"/>
<path fill="#BD8D53" d="M252.292,225.786c2.62,1.987,5.511,4.335,7.229,6.775c2.35,3.251,4.153,6.506,5.961,10.029l0.271,0.541
	l0.543-0.091l2.261,2.259l-1.899-3.433c-1.896-3.523-3.613-6.865-6.054-10.211c-1.896-2.617-5.059-5.146-7.77-7.224
	C252.744,224.883,252.474,225.335,252.292,225.786z M282.557,255.146c-2.079-4.244-3.522-8.039-4.879-11.474
	c-2.62-6.864-4.608-11.834-9.396-14.002c-2.529-1.085-3.882-1.265-4.607-0.361c-1.174,1.355,0.273,4.155,4.246,10.299l8.583,13.37
	c0.091,0.091,0.091,0.182,0.182,0.182c0.271,0.183,0.541,0.183,0.812,0c0.361-0.182,0.452-0.632,0.182-0.994l-8.581-13.369
	c-1.356-2.079-4.879-7.679-4.336-8.585c0,0,0.45-0.271,2.889,0.814c4.247,1.897,6.054,6.414,8.674,13.19
	c1.264,3.342,2.8,7.227,4.879,11.564c0.723,1.535,1.264,2.709,1.714,3.793l2.532,2.529
	C284.995,260.569,284.091,258.398,282.557,255.146z M292.133,265.989c-2.802-5.332-5.69-10.843-6.955-14.185
	c-0.364-0.902-0.635-1.896-0.996-2.891c-1.536-4.518-3.434-10.026-6.956-15.176l-0.812-0.814v-0.271
	c-2.35-3.07-5.329-5.961-9.215-8.311h-3.163c12.196,5.69,16.08,17.075,18.789,25.022c0.365,1.085,0.727,1.99,0.997,2.981
	c1.264,3.433,4.156,9.035,6.956,14.364c0.088,0.091,0.088,0.182,0.18,0.362c0.632,0.272,1.264,0.452,1.987,0.543L292.133,265.989
	L292.133,265.989z M261.507,242.952c0.543,0.091,1.173,0.18,1.808,0.18c-2.801-5.329-5.782-10.299-11.745-14.364
	c-0.089,0.542-0.089,1.085-0.18,1.716C256.265,234.006,258.978,238.253,261.507,242.952z M274.967,224.342h-1.443
	c0.812,0.541,1.534,1.174,2.258,1.806C275.599,225.516,275.328,224.883,274.967,224.342z M295.928,260.478
	c-1.627-4.335-2.079-7.588-1.266-9.305l-1.084-1.085c-0.995,1.717-1.266,4.879,0.993,10.932c0.724,1.806,1.536,3.885,2.44,5.963
	c0.45-0.182,0.901-0.452,1.264-0.813C297.462,264.362,296.739,262.466,295.928,260.478z M300.986,259.483
	c-0.091-0.902-0.453-1.806-0.904-2.62c-0.723,1.627-0.723,4.247,0,7.317c0.543-0.9,0.904-1.985,0.995-2.979
	C300.986,260.569,300.986,260.025,300.986,259.483z M296.198,267.254c-3.977-8.673-7.588-17.979-10.208-24.846l-2.532-2.529
	l0.633,1.627c3.434,8.943,6.958,17.978,10.662,26.109C295.295,267.524,295.748,267.436,296.198,267.254z"/>
<path fill="#CC9457" d="M300.174,264.001c1.533-2.711,1.174-6.232-1.176-8.582l-22.495-22.586c0.182-0.724,0.182-1.535,0.182-2.35
	c0-6.956-5.69-12.647-12.648-12.647c-2.8,0-5.329,0.903-7.497,2.44c-1.536,2.168-2.438,4.788-2.438,7.589
	c0,6.955,5.69,12.649,12.646,12.649c0.813,0,1.626-0.094,2.35-0.183l22.493,22.584C293.939,265.175,297.462,265.536,300.174,264.001
	z"/>
<path fill="#D59E5F" d="M257.262,236.177c1.082,1.173,2.348,2.167,3.702,2.891c-1.714-2.8-3.702-5.509-6.413-7.949
	c0.361,1.534,1.084,2.891,1.988,4.155L257.262,236.177z M295.928,260.478c-1.627-4.335-2.079-7.588-1.266-9.305l-1.084-1.085
	c-0.995,1.717-1.266,4.879,0.993,10.932c0.45,1.176,0.995,2.531,1.536,3.885c0.541,0,1.084,0,1.534-0.091
	C297.101,263.46,296.56,261.924,295.928,260.478z M300.986,259.483c-0.091-0.902-0.453-1.806-0.904-2.62
	c-0.723,1.535-0.723,4.156-0.091,7.138c0,0,0.091,0,0.091-0.091c0.543-0.903,0.813-1.988,0.904-2.979V259.483z M254.101,227.232
	c2.076,1.624,4.063,3.523,5.42,5.329c1.897,2.531,3.341,5.059,4.788,7.68c0.541,0.091,1.173,0.182,1.807,0.182
	c-1.627-2.982-3.254-5.873-5.33-8.764c-1.626-2.168-4.066-4.338-6.416-6.144C254.189,226.057,254.189,226.601,254.101,227.232z
	 M285.99,242.408l-2.529-2.529l0.63,1.627c2.893,7.588,5.963,15.357,9.128,22.404c0.63,0.361,1.262,0.633,1.894,0.724
	C291.501,256.774,288.337,248.644,285.99,242.408z M274.967,224.342h-1.443c0.812,0.541,1.534,1.174,2.258,1.806
	C275.599,225.516,275.328,224.883,274.967,224.342z M285.266,251.714c-0.359-0.903-0.632-1.897-0.993-2.891
	c-1.536-4.516-3.432-10.026-6.956-15.176l-0.813-0.814v-0.271c-2.348-3.07-5.329-5.961-9.215-8.311h-3.252
	c12.196,5.69,16.08,17.072,18.791,25.024c0.363,1.083,0.725,1.988,0.995,2.979c0.45,1.356,1.264,3.073,2.168,4.97l3.252,3.253
	C287.524,257.134,285.99,253.975,285.266,251.714L285.266,251.714z M268.281,229.671c-2.529-1.085-3.882-1.265-4.607-0.361
	c-1.174,1.355,0.273,4.155,4.246,10.299l0.453,0.724l0.724-0.091l2.62,2.62l-2.62-4.064c-1.356-2.079-4.879-7.679-4.336-8.585
	c0,0,0.448-0.271,2.889,0.814c4.247,1.897,6.054,6.414,8.674,13.19c0.632,1.718,1.354,3.523,2.168,5.422l2.8,2.801
	c-1.445-3.253-2.621-6.146-3.613-8.764C275.058,236.809,273.069,231.839,268.281,229.671z"/>
<path fill="#3D5764" d="M232.417,151.978c-25.927,0-46.977,21.049-46.977,46.977c0,25.928,21.05,46.977,46.977,46.977
	s46.979-21.049,46.979-46.977C279.396,173.027,258.344,151.978,232.417,151.978z M232.417,235.994
	c-20.418,0-37.039-16.622-37.039-37.039c0-20.417,16.621-37.039,37.039-37.039c20.416,0,37.039,16.623,37.039,37.039
	C269.456,219.372,252.833,235.994,232.417,235.994z M232.417,151.978c-25.927,0-46.977,21.049-46.977,46.977
	c0,25.928,21.05,46.977,46.977,46.977s46.979-21.049,46.979-46.977C279.396,173.027,258.344,151.978,232.417,151.978z
	 M232.417,235.994c-20.418,0-37.039-16.622-37.039-37.039c0-20.417,16.621-37.039,37.039-37.039
	c20.416,0,37.039,16.623,37.039,37.039C269.456,219.372,252.833,235.994,232.417,235.994z"/>
</svg>
